# xmcd
#
# Track frame offsets:
# 150
# 14811
# 30081
#
# Disc length: 605 seconds
#
# Revision: 1
# Processed by: cddbd v1.5.2PL0 Copyright (c) Steve Scherf et al.
# Submitted via: CedeCatalogueitor 2.6.0.6 http://personales.ya.com/cdcatalogueitor
#
DISCID=18025b03
DTITLE=Breton - Edward The Confessor
DYEAR=1900
DGENRE=
TTITLE0=Edward The Confessor
TTITLE1=Kensington System
TTITLE2=Edwar The Confessor
EXTD=
EXTT0=
EXTT1=
EXTT2=
PLAYORDER=
